<mxfile host="app.diagrams.net" modified="2022-03-30T06:05:18.605Z" agent="5.0 (X11; Linux x86_64) AppleWebKit/537.36 (KHTML, like Gecko) Chrome/86.0.4240.198 Safari/537.36" etag="6q3oLcpGMMpE5lKkhNOY" version="16.5.3" type="github">
  <diagram id="prtHgNgQTEPvFCAcTncT" name="Page-1">
    <mxGraphModel dx="981" dy="625" grid="1" gridSize="10" guides="1" tooltips="1" connect="1" arrows="1" fold="1" page="1" pageScale="1" pageWidth="827" pageHeight="1169" math="0" shadow="0">
      <root>
        <mxCell id="0" />
        <mxCell id="1" parent="0" />
        <mxCell id="dNxyNK7c78bLwvsdeMH5-19" value="业务指标下压" style="swimlane;html=1;childLayout=stackLayout;resizeParent=1;resizeParentMax=0;horizontal=0;startSize=20;horizontalStack=0;" parent="1" vertex="1">
          <mxGeometry x="20" y="110" width="1050" height="430" as="geometry" />
        </mxCell>
        <mxCell id="dNxyNK7c78bLwvsdeMH5-20" value="集团&lt;br&gt;" style="swimlane;html=1;startSize=20;horizontal=0;" parent="dNxyNK7c78bLwvsdeMH5-19" vertex="1">
          <mxGeometry x="20" width="1030" height="120" as="geometry" />
        </mxCell>
        <mxCell id="dNxyNK7c78bLwvsdeMH5-25" value="" style="edgeStyle=orthogonalEdgeStyle;rounded=0;orthogonalLoop=1;jettySize=auto;html=1;" parent="dNxyNK7c78bLwvsdeMH5-20" source="dNxyNK7c78bLwvsdeMH5-23" target="dNxyNK7c78bLwvsdeMH5-24" edge="1">
          <mxGeometry relative="1" as="geometry" />
        </mxCell>
        <mxCell id="dNxyNK7c78bLwvsdeMH5-23" value="发布" style="ellipse;whiteSpace=wrap;html=1;" parent="dNxyNK7c78bLwvsdeMH5-20" vertex="1">
          <mxGeometry x="30" y="35" width="40" height="40" as="geometry" />
        </mxCell>
        <mxCell id="dNxyNK7c78bLwvsdeMH5-24" value="活动和任务指标" style="rounded=0;whiteSpace=wrap;html=1;fontFamily=Helvetica;fontSize=12;fontColor=#000000;align=center;" parent="dNxyNK7c78bLwvsdeMH5-20" vertex="1">
          <mxGeometry x="100" y="30" width="90" height="50" as="geometry" />
        </mxCell>
        <mxCell id="dNxyNK7c78bLwvsdeMH5-32" value="结束" style="ellipse;whiteSpace=wrap;html=1;" parent="dNxyNK7c78bLwvsdeMH5-20" vertex="1">
          <mxGeometry x="800" y="40" width="40" height="40" as="geometry" />
        </mxCell>
        <mxCell id="2-RIii1obnOUTOb9a3gw-54" value="" style="edgeStyle=orthogonalEdgeStyle;rounded=0;orthogonalLoop=1;jettySize=auto;html=1;fontSize=8;" edge="1" parent="dNxyNK7c78bLwvsdeMH5-19" source="2-RIii1obnOUTOb9a3gw-51" target="2-RIii1obnOUTOb9a3gw-53">
          <mxGeometry relative="1" as="geometry" />
        </mxCell>
        <mxCell id="2-RIii1obnOUTOb9a3gw-55" value="" style="edgeStyle=orthogonalEdgeStyle;rounded=0;orthogonalLoop=1;jettySize=auto;html=1;fontSize=8;" edge="1" parent="dNxyNK7c78bLwvsdeMH5-19" source="2-RIii1obnOUTOb9a3gw-53" target="dNxyNK7c78bLwvsdeMH5-32">
          <mxGeometry relative="1" as="geometry" />
        </mxCell>
        <mxCell id="2-RIii1obnOUTOb9a3gw-38" value="门店/店长" style="swimlane;html=1;startSize=20;horizontal=0;" vertex="1" parent="dNxyNK7c78bLwvsdeMH5-19">
          <mxGeometry x="20" y="120" width="1030" height="190" as="geometry" />
        </mxCell>
        <mxCell id="2-RIii1obnOUTOb9a3gw-39" value="" style="edgeStyle=orthogonalEdgeStyle;rounded=0;orthogonalLoop=1;jettySize=auto;html=1;endArrow=classic;endFill=1;startArrow=none;" edge="1" parent="2-RIii1obnOUTOb9a3gw-38" source="2-RIii1obnOUTOb9a3gw-102" target="2-RIii1obnOUTOb9a3gw-41">
          <mxGeometry relative="1" as="geometry">
            <Array as="points">
              <mxPoint x="320" y="130" />
              <mxPoint x="320" y="130" />
            </Array>
          </mxGeometry>
        </mxCell>
        <mxCell id="2-RIii1obnOUTOb9a3gw-40" value="收到活动和任务指标" style="rounded=0;whiteSpace=wrap;html=1;fontFamily=Helvetica;fontSize=12;fontColor=#000000;align=center;" vertex="1" parent="2-RIii1obnOUTOb9a3gw-38">
          <mxGeometry x="105" y="110" width="80" height="40" as="geometry" />
        </mxCell>
        <mxCell id="2-RIii1obnOUTOb9a3gw-41" value="是否可自建活动完成指标" style="rhombus;whiteSpace=wrap;html=1;fontFamily=Helvetica;fontSize=12;fontColor=#000000;align=center;" vertex="1" parent="2-RIii1obnOUTOb9a3gw-38">
          <mxGeometry x="380" y="90" width="90" height="80" as="geometry" />
        </mxCell>
        <mxCell id="2-RIii1obnOUTOb9a3gw-42" value="" style="edgeStyle=orthogonalEdgeStyle;rounded=0;orthogonalLoop=1;jettySize=auto;html=1;fontSize=8;" edge="1" parent="2-RIii1obnOUTOb9a3gw-38">
          <mxGeometry relative="1" as="geometry">
            <mxPoint x="630.0344827586207" y="60" as="sourcePoint" />
            <mxPoint x="630" y="105" as="targetPoint" />
            <Array as="points">
              <mxPoint x="630" y="80" />
              <mxPoint x="630" y="80" />
            </Array>
          </mxGeometry>
        </mxCell>
        <mxCell id="2-RIii1obnOUTOb9a3gw-43" value="创建活动,关联集团任务指标" style="whiteSpace=wrap;html=1;fontColor=#000000;fontSize=8;" vertex="1" parent="2-RIii1obnOUTOb9a3gw-38">
          <mxGeometry x="570" y="20" width="120" height="50" as="geometry" />
        </mxCell>
        <mxCell id="2-RIii1obnOUTOb9a3gw-46" value="是" style="text;html=1;align=center;verticalAlign=middle;resizable=0;points=[];autosize=1;strokeColor=none;fillColor=none;" vertex="1" parent="2-RIii1obnOUTOb9a3gw-38">
          <mxGeometry x="330" y="110" width="30" height="20" as="geometry" />
        </mxCell>
        <mxCell id="2-RIii1obnOUTOb9a3gw-47" value="以活动创建子任务分割指标到导购" style="whiteSpace=wrap;html=1;fontSize=8;fontColor=#000000;" vertex="1" parent="2-RIii1obnOUTOb9a3gw-38">
          <mxGeometry x="570" y="105" width="120" height="50" as="geometry" />
        </mxCell>
        <mxCell id="2-RIii1obnOUTOb9a3gw-53" value="汇总指标" style="whiteSpace=wrap;html=1;fontSize=8;rounded=0;" vertex="1" parent="2-RIii1obnOUTOb9a3gw-38">
          <mxGeometry x="760" y="90" width="120" height="50" as="geometry" />
        </mxCell>
        <mxCell id="2-RIii1obnOUTOb9a3gw-103" value="" style="edgeStyle=orthogonalEdgeStyle;rounded=0;orthogonalLoop=1;jettySize=auto;html=1;fontSize=8;" edge="1" parent="2-RIii1obnOUTOb9a3gw-38" source="2-RIii1obnOUTOb9a3gw-40" target="2-RIii1obnOUTOb9a3gw-102">
          <mxGeometry relative="1" as="geometry" />
        </mxCell>
        <mxCell id="2-RIii1obnOUTOb9a3gw-102" value="&lt;span&gt;是否同时包含活动和任务指标&lt;/span&gt;" style="rhombus;whiteSpace=wrap;html=1;fontColor=#000000;rounded=0;" vertex="1" parent="2-RIii1obnOUTOb9a3gw-38">
          <mxGeometry x="225" y="90" width="80" height="80" as="geometry" />
        </mxCell>
        <mxCell id="2-RIii1obnOUTOb9a3gw-104" value="" style="edgeStyle=orthogonalEdgeStyle;rounded=0;orthogonalLoop=1;jettySize=auto;html=1;endArrow=none;endFill=1;" edge="1" parent="2-RIii1obnOUTOb9a3gw-38" source="2-RIii1obnOUTOb9a3gw-40" target="2-RIii1obnOUTOb9a3gw-102">
          <mxGeometry relative="1" as="geometry">
            <mxPoint x="225" y="340.0344827586207" as="sourcePoint" />
            <mxPoint x="474.03879310344814" y="360.0344827586207" as="targetPoint" />
          </mxGeometry>
        </mxCell>
        <mxCell id="2-RIii1obnOUTOb9a3gw-105" value="" style="endArrow=classic;html=1;rounded=0;fontSize=8;exitX=0.5;exitY=0;exitDx=0;exitDy=0;" edge="1" parent="2-RIii1obnOUTOb9a3gw-38" source="2-RIii1obnOUTOb9a3gw-102" target="2-RIii1obnOUTOb9a3gw-43">
          <mxGeometry width="50" height="50" relative="1" as="geometry">
            <mxPoint x="265" y="80" as="sourcePoint" />
            <mxPoint x="505" y="30" as="targetPoint" />
            <Array as="points">
              <mxPoint x="265" y="45" />
              <mxPoint x="435" y="45" />
            </Array>
          </mxGeometry>
        </mxCell>
        <mxCell id="2-RIii1obnOUTOb9a3gw-106" value="否" style="text;html=1;align=center;verticalAlign=middle;resizable=0;points=[];autosize=1;strokeColor=none;fillColor=none;fontSize=8;" vertex="1" parent="2-RIii1obnOUTOb9a3gw-38">
          <mxGeometry x="240" y="50" width="30" height="20" as="geometry" />
        </mxCell>
        <mxCell id="2-RIii1obnOUTOb9a3gw-109" value="" style="endArrow=none;html=1;rounded=0;fontSize=8;exitX=0.5;exitY=0;exitDx=0;exitDy=0;" edge="1" parent="2-RIii1obnOUTOb9a3gw-38" source="2-RIii1obnOUTOb9a3gw-41">
          <mxGeometry width="50" height="50" relative="1" as="geometry">
            <mxPoint x="455" y="85" as="sourcePoint" />
            <mxPoint x="425" y="45" as="targetPoint" />
          </mxGeometry>
        </mxCell>
        <mxCell id="2-RIii1obnOUTOb9a3gw-110" value="" style="endArrow=classic;html=1;rounded=0;fontSize=8;entryX=0;entryY=0.5;entryDx=0;entryDy=0;exitX=1;exitY=0.5;exitDx=0;exitDy=0;" edge="1" parent="2-RIii1obnOUTOb9a3gw-38" source="2-RIii1obnOUTOb9a3gw-41" target="2-RIii1obnOUTOb9a3gw-47">
          <mxGeometry width="50" height="50" relative="1" as="geometry">
            <mxPoint x="440" y="170" as="sourcePoint" />
            <mxPoint x="490" y="120" as="targetPoint" />
          </mxGeometry>
        </mxCell>
        <mxCell id="dNxyNK7c78bLwvsdeMH5-21" value="导购" style="swimlane;html=1;startSize=20;horizontal=0;" parent="dNxyNK7c78bLwvsdeMH5-19" vertex="1">
          <mxGeometry x="20" y="310" width="1030" height="120" as="geometry" />
        </mxCell>
        <mxCell id="2-RIii1obnOUTOb9a3gw-52" value="" style="edgeStyle=orthogonalEdgeStyle;rounded=0;orthogonalLoop=1;jettySize=auto;html=1;fontSize=8;" edge="1" parent="dNxyNK7c78bLwvsdeMH5-21" source="2-RIii1obnOUTOb9a3gw-48" target="2-RIii1obnOUTOb9a3gw-51">
          <mxGeometry relative="1" as="geometry" />
        </mxCell>
        <mxCell id="2-RIii1obnOUTOb9a3gw-48" value="导购接收任务和指标" style="rounded=0;whiteSpace=wrap;html=1;fontSize=8;" vertex="1" parent="dNxyNK7c78bLwvsdeMH5-21">
          <mxGeometry x="570" y="40" width="120" height="50" as="geometry" />
        </mxCell>
        <mxCell id="2-RIii1obnOUTOb9a3gw-51" value="海报,点赞方式完成指标" style="whiteSpace=wrap;html=1;fontSize=8;rounded=0;" vertex="1" parent="dNxyNK7c78bLwvsdeMH5-21">
          <mxGeometry x="760" y="40" width="120" height="50" as="geometry" />
        </mxCell>
        <mxCell id="2-RIii1obnOUTOb9a3gw-13" value="" style="edgeStyle=orthogonalEdgeStyle;rounded=0;orthogonalLoop=1;jettySize=auto;html=1;entryX=0.5;entryY=0;entryDx=0;entryDy=0;" edge="1" parent="dNxyNK7c78bLwvsdeMH5-19" source="dNxyNK7c78bLwvsdeMH5-24" target="2-RIii1obnOUTOb9a3gw-40">
          <mxGeometry relative="1" as="geometry">
            <mxPoint x="180" y="270" as="targetPoint" />
          </mxGeometry>
        </mxCell>
        <mxCell id="2-RIii1obnOUTOb9a3gw-50" value="" style="edgeStyle=orthogonalEdgeStyle;rounded=0;orthogonalLoop=1;jettySize=auto;html=1;fontSize=8;entryX=0.5;entryY=0;entryDx=0;entryDy=0;" edge="1" parent="dNxyNK7c78bLwvsdeMH5-19" source="2-RIii1obnOUTOb9a3gw-47" target="2-RIii1obnOUTOb9a3gw-48">
          <mxGeometry relative="1" as="geometry">
            <mxPoint x="650" y="320" as="targetPoint" />
          </mxGeometry>
        </mxCell>
        <mxCell id="2-RIii1obnOUTOb9a3gw-111" value="否" style="text;html=1;align=center;verticalAlign=middle;resizable=0;points=[];autosize=1;strokeColor=none;fillColor=none;fontSize=8;" vertex="1" parent="1">
          <mxGeometry x="545" y="340" width="30" height="20" as="geometry" />
        </mxCell>
      </root>
    </mxGraphModel>
  </diagram>
</mxfile>
